<svg xmlns="http://www.w3.org/2000/svg" xmlns:xlink="http://www.w3.org/1999/xlink" xmlns:fi="http://pattern.flaticon.com/" x="0" y="0" width="700" height="350" viewBox="0 0 700 350"><rect x="0px" y="0px" width="100%" height="100%" opacity="1" fill="#d6f7e0"/><defs><g transform="matrix(0.13671875 0 0 0.13671875 315 140)" id="L1_1"><path d="m24.00012 496h464a8.00008 8.00008 0 0 0 8-8v-72a8.00008 8.00008 0 0 0 -8-8h-8a8 8 0 1 1 0-16h8a8.00008 8.00008 0 0 0 8-8v-256a8.00008 8.00008 0 0 0 -8-8h-8a8 8 0 1 1 0-16h8a8.00008 8.00008 0 0 0 8-8v-72a8.00008 8.00008 0 0 0 -8-8h-464a8.00008 8.00008 0 0 0 -8 8v136a8.00008 8.00008 0 0 0 8 8h8a8 8 0 1 1 0 16h-8a8.00008 8.00008 0 0 0 -8 8v184a8.00008 8.00008 0 0 0 8 8h8a8 8 0 0 1 0 16h-8a8.00008 8.00008 0 0 0 -8 8v80a8.00008 8.00008 0 0 0 8 8zm8-80a24 24 0 1 0 0-48v-168a24 24 0 1 0 0-48v-120h448v56a23.88542 23.88542 0 0 0 -16.96679 7.01318l-.02051.02a24.00919 24.00919 0 0 0 16.9873 40.96682v240a24 24 0 1 0 0 48v56h-448z"/><path d="m56.00012 104h40a8.00008 8.00008 0 0 0 8-8v-40a8.00008 8.00008 0 0 0 -8-8h-40a8.00008 8.00008 0 0 0 -8 8v40a8.00008 8.00008 0 0 0 8 8zm8-40h24v24h-24z"/><path d="m48 120h16v16h-16z"/><path d="m48 264h16v16h-16z"/><path d="m72 264h16v16h-16z"/><path d="m48 288h16v16h-16z"/><path d="m72 288h16v16h-16z"/><path d="m48 312h16v16h-16z"/><path d="m72 312h16v16h-16z"/><path d="m424 208h16v16h-16z"/><path d="m448 208h16v16h-16z"/><path d="m424 232h16v16h-16z"/><path d="m448 232h16v16h-16z"/><path d="m424 256h16v16h-16z"/><path d="m448 256h16v16h-16z"/><path d="m80 120h24v16h-24z"/><path d="m336.00012 112h-144a40.04552 40.04552 0 0 0 -40 40v208a40.04552 40.04552 0 0 0 40 40h144a40.04551 40.04551 0 0 0 40-40v-208a40.04551 40.04551 0 0 0 -40-40zm24 248a24.0275 24.0275 0 0 1 -24 24h-144a24.0275 24.0275 0 0 1 -24-24v-208a24.0275 24.0275 0 0 1 24-24h144a24.0275 24.0275 0 0 1 24 24z"/><path d="m416.00012 48h-40a24.02718 24.02718 0 0 0 -24 24 8.00917 8.00917 0 0 1 -8 8h-24v-8a24.02718 24.02718 0 0 0 -24-24h-80a24.02718 24.02718 0 0 0 -24 24v8h-48a24.02718 24.02718 0 0 0 -24 24v40a8.00917 8.00917 0 0 1 -8 8h-16a24.02718 24.02718 0 0 0 -24 24v48a24.02718 24.02718 0 0 0 24 24 8.00917 8.00917 0 0 1 8 8v104a8.00917 8.00917 0 0 1 -8 8 24.02718 24.02718 0 0 0 -24 24v48a24.02718 24.02718 0 0 0 24 24h40a24.02718 24.02718 0 0 0 24-24 8.00917 8.00917 0 0 1 8-8h24v8a24.02718 24.02718 0 0 0 24 24h80a24.02718 24.02718 0 0 0 24-24v-8h24a8.00917 8.00917 0 0 1 8 8 24.02718 24.02718 0 0 0 24 24h40a24.02718 24.02718 0 0 0 24-24v-104a24.02718 24.02718 0 0 0 -24-24 8.00917 8.00917 0 0 1 -8-8v-104a8.00917 8.00917 0 0 1 8-8 24.02718 24.02718 0 0 0 24-24v-96a24.02718 24.02718 0 0 0 -24-24zm8 120a8.00917 8.00917 0 0 1 -8 8 24.02718 24.02718 0 0 0 -24 24v104a24.02718 24.02718 0 0 0 24 24 8.00917 8.00917 0 0 1 8 8v104a8.00917 8.00917 0 0 1 -8 8h-40a8.00917 8.00917 0 0 1 -8-8 24.02718 24.02718 0 0 0 -24-24h-72v16h32v8a8.00917 8.00917 0 0 1 -8 8h-80a8.00917 8.00917 0 0 1 -8-8v-8h40v-16h-80a24.02718 24.02718 0 0 0 -24 24 8.00917 8.00917 0 0 1 -8 8h-40a8.00917 8.00917 0 0 1 -8-8v-48a8.00917 8.00917 0 0 1 8-8 24.02718 24.02718 0 0 0 24-24v-104a24.02718 24.02718 0 0 0 -24-24 8.00917 8.00917 0 0 1 -8-8v-48a8.00917 8.00917 0 0 1 8-8h16a24.02718 24.02718 0 0 0 24-24v-40a8.00917 8.00917 0 0 1 8-8h56a8.00008 8.00008 0 0 0 8-8v-16a8.00917 8.00917 0 0 1 8-8h80a8.00917 8.00917 0 0 1 8 8v8h-32v16h72a24.02718 24.02718 0 0 0 24-24 8.00917 8.00917 0 0 1 8-8h40a8.00917 8.00917 0 0 1 8 8z"/></g><g transform="matrix(0.0390625 0 0 0.0390625 252.5 340)" id="L1_3"><path d="m472.00012 296h-16.65649l-23.3728-272.68359a8 8 0 0 0 -7.97071-7.31641h-16a8 8 0 0 0 -7.9707 7.31641l-23.3728 272.68359h-241.313l-23.37279-272.68359a8 8 0 0 0 -7.97071-7.31641h-16a8 8 0 0 0 -7.9707 7.31641l-23.3728 272.68359h-16.6565a24.0275 24.0275 0 0 0 -24 24v88a8.00009 8.00009 0 0 0 8 8h16v8h-16a8.00009 8.00009 0 0 0 -8 8v16a24.0275 24.0275 0 0 0 24 24h17.0127a32.05731 32.05731 0 0 0 30.9873 24h8a32.05731 32.05731 0 0 0 30.98731-24h258.02539a32.05731 32.05731 0 0 0 30.9873 24h8a32.05731 32.05731 0 0 0 30.98731-24h17.01269a24.0275 24.0275 0 0 0 24-24v-16a8.00008 8.00008 0 0 0 -8-8h-16v-8h16a8.00008 8.00008 0 0 0 8-8v-88a24.0275 24.0275 0 0 0 -24-24zm-56.65625-264h1.3125l22.62863 264h-46.56979zm-320 0h1.3125l22.62863 264h-46.56979zm.65625 448h-8a16.008 16.008 0 0 1 -13.85254-8h35.70508a16.008 16.008 0 0 1 -13.85254 8zm328 0h-8a16.008 16.008 0 0 1 -13.85254-8h35.70508a16.008 16.008 0 0 1 -13.85254 8zm56-32a8.00917 8.00917 0 0 1 -8 8h-432a8.00917 8.00917 0 0 1 -8-8v-8h448zm-24-24h-400v-8h400zm-16-24h-368v-48h368zm40 0h-24v-56a8.00008 8.00008 0 0 0 -8-8h-384a8.00009 8.00009 0 0 0 -8 8v56h-24v-80a8.00917 8.00917 0 0 1 8-8h432a8.00917 8.00917 0 0 1 8 8z"/><path d="m96 368h56v16h-56z"/><circle cx="288" cy="376" r="8"/><circle cx="328" cy="376" r="8"/><circle cx="368" cy="376" r="8"/><circle cx="408" cy="376" r="8"/></g><g transform="matrix(0.13206017156295854 -0.03538541632261026 0.03538541632261026 0.13206017156295854 132.37428633042575 149.88945421441264)" id="L1_5"><path d="M386.34338,213.65674a7.99945,7.99945,0,0,0,11.31348,0l24-24a7.99915,7.99915,0,0,0,0-11.31348l-40-40a8,8,0,0,0-11.31348,0l-24,24a7.99915,7.99915,0,0,0,0,11.31348ZM376.00012,155.314,404.68616,184l-12.686,12.686L363.31409,168Z"/><rect x="328px" y="154px" width="15px" height="90px" transform="matrix(0.7071067811865476 -0.7071067811865476 0.7071067811865476 0.7071067811865476 -43.00920104980469 296.1665954589844)"/><path d="M437.65686,266.34326a8,8,0,0,0-11.31348,0l-40,40-40,40a8.0024,8.0024,0,0,0-2.188,4.08789l-7.525,37.62512L286.0592,438.62744A31.79174,31.79174,0,0,1,263.43176,448H78.62756A14.62758,14.62758,0,0,1,68.2843,423.0293l39.65955-39.65955,37.62512-7.525a8.00249,8.00249,0,0,0,4.08789-2.188l18.34326-18.34326L209.858,397.17139a36.97,36.97,0,0,0,52.28418,0l191.0293-191.0293a36.97,36.97,0,0,0,0-52.28418L326.14172,26.82861a36.96942,36.96942,0,0,0-52.28369,0L82.82874,217.85791a36.97,36.97,0,0,0,0,52.28418L100.68665,288,82.34338,306.34326a8.0024,8.0024,0,0,0-2.188,4.08789l-7.525,37.62512L34.91174,385.7749A64.56838,64.56838,0,0,0,80.56848,496h185.6084a79.47459,79.47459,0,0,0,56.56836-23.43164l49.19861-49.19861,37.62512-7.525a8.00249,8.00249,0,0,0,4.08789-2.188l40-40,40-40a7.99915,7.99915,0,0,0,0-11.31348Zm-5.65674,16.97022L448.68665,300l-28.68653,28.68652L403.3136,312ZM88.00012,244a20.83314,20.83314,0,0,1,6.14209-14.82861l191.0293-191.0293a20.97053,20.97053,0,0,1,29.65674,0L441.858,165.17139a20.97111,20.97111,0,0,1,0,29.65722L250.82874,385.85791a20.97113,20.97113,0,0,1-29.65723,0L94.14221,258.82861A20.83314,20.83314,0,0,1,88.00012,244Zm7.36963,71.94385,16.63037-16.63037L156.68665,344l-16.63038,16.63037-33.42675,6.68555L88.6842,349.37061Zm216.062,145.311A63.58272,63.58272,0,0,1,266.17688,480H80.56848a48.5687,48.5687,0,0,1-34.34326-82.91162l33.7749-33.7749L92.68665,376,56.97083,411.71582A30.62725,30.62725,0,0,0,78.62756,464h184.8042a47.68367,47.68367,0,0,0,33.94092-14.05908l46.62744-46.62744L356.68665,416Zm92.624-60.62451-33.42627,6.68555L352.6842,389.37061l6.68555-33.42627L392.00012,323.314,436.68616,368Zm43.94433-43.94385L431.3136,340l28.68652-28.68652L476.68665,328Z"/></g><g transform="matrix(0.17578125 0 0 0.17578125 217.5 217.5)" id="L1_7"><path d="m493.65686 170.34277-48-48a8.00182 8.00182 0 0 0 -11.31348 0l-22.34326 22.34323-4.686-4.686 22.34277-22.34277a8.00034 8.00034 0 0 0 0-11.31446l-88-88a8.00182 8.00182 0 0 0 -11.31348 0l-22.34329 22.34323-22.34326-22.34323a8.00182 8.00182 0 0 0 -11.31348 0l-256 256a8.00034 8.00034 0 0 0 0 11.31446l208 208a8.00063 8.00063 0 0 0 11.31348 0l256-256a8.00034 8.00034 0 0 0 0-11.31446l-22.34277-22.34277 22.34277-22.34277a8.00034 8.00034 0 0 0 0-11.31446zm-53.65674-31.02929 12.68628 12.68628-16.68628 16.68624-12.68603-12.686zm-44-10.62744-12.68603-12.68604 16.686-16.686 12.68607 12.686zm-52.68603-52.68604 16.68628-16.68628 8.68591 8.68628-16.68616 16.686zm36.68615 3.314 8.68592 8.686-16.686 16.686-8.68607-8.686zm-44.00012-44.00052 12.68628 12.68628-16.68628 16.68624-12.68603-12.686zm-104 441.373-196.68652-196.68648 244.68652-244.68652 60.68653 60.68652h-4.68653a8.00035 8.00035 0 0 0 -5.65674 2.34277l-22.34326 22.34323-8.686-8.686 18.34277-18.34277a8.00034 8.00034 0 0 0 0-11.31446l-16-16-11.31351 11.31446 10.34327 10.34277-12.68653 12.686-18.34326-18.34323a8.00182 8.00182 0 0 0 -11.31348 0l-24 24-120 120a8.00034 8.00034 0 0 0 0 11.31446l160 160a8.00138 8.00138 0 0 0 5.65674 2.34277c.04248 0 .08594 0 .12891-.001a8.00279 8.00279 0 0 0 5.70752-2.52734l120-128a7.9997 7.9997 0 0 0 -.32666-11.27148l-96.61328-91.78272 16.76025-16.76025a8.00034 8.00034 0 0 0 0-11.31446l-6.34277-6.34275 19.99951-20h17.373l120 120zm156.728-212.36035-108.91354 116.17487-148.50098-148.501 108.82959-108.8291zm-91.43552-108.93233-45.832-43.54053 12.53955-12.53979 44.6865 44.68652zm162.70752 37.2922-12.68603-12.686 16.68628-16.68628 12.68628 12.68628z"/><path d="m112.00012 280a24 24 0 1 0 -24 24 24.02718 24.02718 0 0 0 24-24zm-24 8a8 8 0 1 1 8-8 8.00917 8.00917 0 0 1 -8 8z"/><path d="m232.00012 400a24 24 0 1 0 24 24 24.02719 24.02719 0 0 0 -24-24zm0 32a8 8 0 1 1 8-8 8.00917 8.00917 0 0 1 -8 8z"/><circle cx="112" cy="320" r="8"/><circle cx="128" cy="304" r="8"/><circle cx="128" cy="336" r="8"/><circle cx="144" cy="320" r="8"/><circle cx="144" cy="352" r="8"/><circle cx="160" cy="336" r="8"/><path d="m163.03 364h33.941v16h-33.941z" transform="matrix(0.707 -0.707 0.707 0.707 -210.323 236.236)"/><path d="m179.03 380h33.941v16h-33.941z" transform="matrix(0.707 -0.707 0.707 0.707 -216.95 252.236)"/><path d="m338.34338 162.34277a8.00034 8.00034 0 0 0 0 11.31446l24 24a8.00063 8.00063 0 0 0 11.31348 0l24-24a8.00034 8.00034 0 0 0 0-11.31446l-24-24a8.00182 8.00182 0 0 0 -11.31348 0zm42.34327 5.65723-12.68653 12.68652-12.68652-12.68652 12.68652-12.68652z"/><path d="m387.03 196h33.941v16h-33.941z" transform="matrix(0.707 -0.707 0.707 0.707 -25.921 345.421)"/><path d="m411.03 220h33.941v16h-33.941z" transform="matrix(0.707 -0.707 0.707 0.707 -35.862 369.421)"/><path d="m256 202.745h16v90.51h-16z" transform="matrix(0.707 -0.707 0.707 0.707 -98.039 259.314)"/><path d="m208 188.686h16v22.627h-16z" transform="matrix(0.707 -0.707 0.707 0.707 -78.156 211.314)"/><path d="m244 159.716h16v56.569h-16z" transform="matrix(0.707 -0.707 0.707 0.707 -59.127 233.255)"/><path d="m332 243.029h16v33.941h-16z" transform="matrix(0.707 -0.707 0.707 0.707 -84.264 316.569)"/><path d="m176 225.373h16v45.255h-16z" transform="matrix(0.707 -0.707 0.707 0.707 -121.472 202.758)"/></g><g transform="matrix(0.1697916491523753 0.04549553527192747 -0.04549553527192747 0.1697916491523753 317.222368442811 295.1306495815675)" id="L1_9"><path d="m464.00012 160h-321.92169l299.39581-56.13672a8.0006 8.0006 0 0 0 6.28711-9.80371l-8-32a8.00178 8.00178 0 0 0 -9.30029-5.91016l-388.61865 76.19922a32.06458 32.06458 0 0 0 -25.84229 31.40237v236.249a32.03635 32.03635 0 0 0 32 32h48v16a24.02719 24.02719 0 0 0 24 24h121.86035a23.96138 23.96138 0 0 0 16.05469-6.16113l62.085-55.876v14.03713a8.00009 8.00009 0 0 0 8 8h136a32.03635 32.03635 0 0 0 32-32v-208a32.03635 32.03635 0 0 0 -32.00004-32zm16 32v16h-448v-32h432a16.01833 16.01833 0 0 1 16 16zm-160 128h-208v-96h208zm-275.07861-171.9502 381.16064-74.7373 4.09717 16.38965-374.92285 70.29785h-22.80957a16.04368 16.04368 0 0 1 12.47461-11.9502zm3.07861 267.9502a16.01833 16.01833 0 0 1 -16-16v-176h64v192zm64 32v-112h208v48h-56a24.02719 24.02719 0 0 0 -24 24v48h-120a8.00917 8.00917 0 0 1 -8-8zm144-1.96338v-38.03662a8.00917 8.00917 0 0 1 8-8h43.15228zm224-46.03662a16.01833 16.01833 0 0 1 -16 16h-128v-192h144z"/><path d="m168.00012 304h48a8.00008 8.00008 0 0 0 8-8v-48a8.00008 8.00008 0 0 0 -8-8h-48a8.00009 8.00009 0 0 0 -8 8v48a8.00009 8.00009 0 0 0 8 8zm8-48h32v32h-32z"/><circle cx="136" cy="248" r="8"/><circle cx="136" cy="272" r="8"/><circle cx="136" cy="296" r="8"/><path d="m248 248h16v16h-16z"/><path d="m280 248h16v16h-16z"/><path d="m248 280h16v16h-16z"/><path d="m280 280h16v16h-16z"/><path d="m360.00012 400h96a8.00008 8.00008 0 0 0 8-8v-72a8.00008 8.00008 0 0 0 -8-8h-96a8.00009 8.00009 0 0 0 -8 8v72a8.00009 8.00009 0 0 0 8 8zm88-16h-16v-56h16zm-32 0h-16v-56h16zm-48-56h16v56h-16z"/><path d="m368 280h16v16h-16z"/><path d="m400 280h16v16h-16z"/><path d="m432 280h16v16h-16z"/><path d="m56 344h16v48h-16z"/></g><g transform="matrix(0.0390625 0 0 0.0390625 77.5 340)" id="L1_11"><path d="M383.91272,66.74121,231.27405,20.28613a36.61438,36.61438,0,0,0-47.27393,35.02735v69.373l-29.65674,29.65625A8.0008,8.0008,0,0,0,152.00012,160v36.68652l-46.62744,46.627a31.79123,31.79123,0,0,0-9.37256,22.62793V380a32.152,32.152,0,0,0,12.8003,25.60059L192.00012,468a140.87983,140.87983,0,0,0,84,28c77.19629,0,140-62.80371,140-140V110.04785a45.2702,45.2702,0,0,0-32.0874-43.30664ZM398.49817,100.793a29.2113,29.2113,0,0,1,1.50195,9.25488v93.00806l-64-32V112a8.00008,8.00008,0,0,0-8-8h-16V61.57935L379.254,82.04785A29.314,29.314,0,0,1,398.49817,100.793ZM320.00012,120v48h-32V120ZM209.17981,38.16211a20.53389,20.53389,0,0,1,17.436-2.56934l69.38428,21.11695V104h-16a8.00009,8.00009,0,0,0-8,8v58.84839l-72,32.72729V55.31348A20.57154,20.57154,0,0,1,209.17981,38.16211ZM184.00012,280h-24V256h24Zm-24,16h24v24h-24Zm41.59961,159.19922L118.4,392.7998A16.07482,16.07482,0,0,1,112.00012,380V367.43945L227.089,448.67773A39.79156,39.79156,0,0,0,250.15637,456h99.07471a123.33219,123.33219,0,0,1-73.231,24A124.776,124.776,0,0,1,201.59973,455.19922ZM367.12634,440h-116.97a23.87528,23.87528,0,0,1-13.84033-4.39355l-124.31592-87.752V265.94141a15.89423,15.89423,0,0,1,4.686-11.31348l48.9707-48.9707A8.00076,8.00076,0,0,0,168.00012,200V163.31348l16-16V240h-32a8.00009,8.00009,0,0,0-8,8v80a8.00009,8.00009,0,0,0,8,8h32v40h16V221.15161L281.73376,184h44.37818l73.88818,36.94409V356A123.52585,123.52585,0,0,1,367.12634,440Z"/><path d="M312.00012,208h-16a16.01833,16.01833,0,0,0-16,16v32a16.01833,16.01833,0,0,0,16,16h16a16.01833,16.01833,0,0,0,16-16V224A16.01833,16.01833,0,0,0,312.00012,208Zm0,48h-16l-.01025-32h16.01025Z"/></g><g transform="matrix(0.09765625 0 0 0.09765625 62.5 237.5)" id="L1_13"><path d="m493.65735 338.34277-48-48a8.00235 8.00235 0 0 0 -5.65723-2.34277h-16.05542a79.9264 79.9264 0 0 0 32.05542-64v-24a8.00039 8.00039 0 0 0 -8-8h-42.40625l85.83887-40.77344-.00147-.00342a7.99641 7.99641 0 0 0 -.18212-14.53369l-72-32a8.0073 8.0073 0 0 0 -3.249-.68945h-152v.01a7.99568 7.99568 0 0 0 -3.57812.83472l-208 104a7.99957 7.99957 0 0 0 -3.84961 4.18457l-31.939 79.84716-.01318.03321-.04785.11963c-.01026.02588-.01465.05273-.02466.07861a7.91873 7.91873 0 0 0 -.30737.97754c-.01368.05566-.03028.11059-.04273.1665a7.9746 7.9746 0 0 0 -.16235 1.05225c-.00684.07812-.00733.15552-.01172.2334-.00879.15381-.02344.30639-.02344.4624v104.00001a8.00039 8.00039 0 0 0 8 8h464a8.00039 8.00039 0 0 0 8-8v-56a7.975 7.975 0 0 0 -2.34326-5.65674zm-56.9707-34.34277 7.99975 8h-12.68628v16h28.686l7.99975 8h-201.37129l-8.00025-8h28.68579v-16h-44.68628l-8.00024-8h201.373zm-233.198-16 68.10205-32.34839a64.02679 64.02679 0 0 1 -55.59058 32.34839zm236.51147-80v16a64.07207 64.07207 0 0 1 -64 64h-112.0498a79.92764 79.92764 0 0 0 32.0498-64v-16h75.325l.10767.22656.477-.22656zm-152-16a8.00039 8.00039 0 0 0 -8 8v24a64.16085 64.16085 0 0 1 -.84839 10.34595l-112.95581 53.65405h-106.70727l286.31567-136h106.70728l-84.21045 40zm162.30274-56h-104.7627l-40-16h108.7627zm-388.00486 85.79492 202.06641-101.0332 59.667 23.86719-285.02055 135.38379zm-30.29788 130.20508h32v-16h-32v-32h180.68555l32 32h-148.68555v16h160v40h-224zm448 40h-208v-40h208z"/><path d="m320 312h16v16h-16z"/><path d="m352 312h16v16h-16z"/><path d="m384 312h16v16h-16z"/></g><g transform="matrix(0.078125 0 0 0.078125 67.5 67.5)" id="L1_15"><path d="M52.00354,391.31738a8.00036,8.00036,0,0,0,5.65674,2.34278h.00293a8.00183,8.00183,0,0,0,5.6582-2.34766l6.3291-6.33887A3.31391,3.31391,0,1,1,74.339,389.6582l-6.33984,6.34961a8.00018,8.00018,0,0,0,.00439,11.30957l20,20a7.99951,7.99951,0,0,0,5.65674,2.34278h.00342a7.99979,7.99979,0,0,0,5.65869-2.34864l5.64453-5.65429a3.30237,3.30237,0,0,1,2.34717-.97168h.00146a3.28694,3.28694,0,0,1,2.33789.97168,3.3225,3.3225,0,0,1-.00537,4.6914l-5.6499,5.66016a7.99988,7.99988,0,0,0,.00537,11.30859l50.33984,50.33985A8.00178,8.00178,0,0,0,159.99963,496h.04883a7.99937,7.99937,0,0,0,5.67627-2.41211l328-336a7.99994,7.99994,0,0,0-.06787-11.24512l-48-48a8.00269,8.00269,0,0,0-11.31348,0l-4.68994,4.68946a3.31006,3.31006,0,0,1-5.65332-2.34278,3.25156,3.25156,0,0,1,.9668-2.34277l4.68994-4.68945a8.00063,8.00063,0,0,0,0-11.31446l-16-16a8.00357,8.00357,0,0,0-11.31348,0l-4.68994,4.68946a3.31006,3.31006,0,0,1-5.65332-2.34278,3.25156,3.25156,0,0,1,.9668-2.34277l4.68994-4.68945a8.00063,8.00063,0,0,0,0-11.31446l-32-32a8.00128,8.00128,0,0,0-11.24512-.06738l-336,328a8.00009,8.00009,0,0,0-.06836,11.38184ZM408.443,195.75684l12.9856,12.98559-12.5332,12.83887-12.949-12.949Zm11.14514-11.48291,12.497-12.87549,13.05445,13.05468L432.6062,197.292Zm-34.78686,35.8413,12.9165,12.91651-12.53308,12.83887-12.88012-12.88013Zm-23.64172,24.35816L374.007,257.3208l-12.53321,12.83887-12.81091-12.811ZM337.5177,268.83154l12.77856,12.77857L337.76306,294.449,325.02112,281.707ZM313.876,293.18994l12.70935,12.70923L314.05212,318.738l-12.67285-12.67285ZM290.23425,317.5481l12.64038,12.64038-12.5332,12.83886-12.604-12.604Zm-23.64184,24.35815,12.57129,12.57129-12.53308,12.83887L254.0957,354.78174ZM242.95062,366.2644,255.453,378.76685l-12.5332,12.83886L230.454,379.13989Zm-23.64178,24.35816,12.43335,12.43359L219.209,415.895l-12.39679-12.397ZM195.66705,414.981l12.36432,12.36425-16.485,16.88721L179.2301,431.916ZM359.93225,35.24609l20.7876,20.78711a19.31444,19.31444,0,0,0,27.24609,27.2461l4.75391,4.7539a19.31444,19.31444,0,0,0,27.24609,27.2461L476.754,152.06738l-20.437,20.93555-18.66016-18.66016A7.99882,7.99882,0,0,0,432.00012,152h-.05957a8.00348,8.00348,0,0,0-5.68115,2.42773l-264,272a8.00089,8.00089,0,0,0,.084,11.2295l18.02539,18.02539-20.437,20.93554-38.96289-38.96289a19.31469,19.31469,0,0,0-13.64453-32.96972h-.01074a19.19072,19.19072,0,0,0-13.6582,5.65625l-8.68555-8.68555.68848-.69043A19.31355,19.31355,0,1,0,58.339,373.6582l-.68311.6836L35.38245,352.06836Z"/><path d="M138.34338,413.65723a8.00063,8.00063,0,0,0,11.31348,0l120-120a8.00034,8.00034,0,0,0,0-11.31446l-64-64a8.00182,8.00182,0,0,0-11.31348,0l-120,120a8.00034,8.00034,0,0,0,0,11.31446Zm61.65674-178.34375L252.68616,288l-28.68579,28.68628L171.31409,264Zm-40.00024,40.00024L212.68616,328l-28.68579,28.68628L131.31409,304Zm-40,40L172.68616,368l-28.686,28.68652L91.31409,344Z"/><path d="M282.34338,269.65723a8.00063,8.00063,0,0,0,11.31348,0l120-120a8.00034,8.00034,0,0,0,0-11.31446l-64-64a8.00182,8.00182,0,0,0-11.31348,0l-120,120a8.00034,8.00034,0,0,0,0,11.31446ZM344.00012,91.31348,396.68616,144l-28.68579,28.68628L315.31409,120Zm-40.00024,40.00024L356.68616,184l-28.68579,28.68628L275.31409,160Zm-40,40L316.68616,224l-28.686,28.68652L235.31409,200Z"/></g><g transform="matrix(0.078125 0 0 0.078125 242.5 67.5)" id="L1_17"><path d="m341.65686 258.34326-56-56-24-24a8 8 0 0 0 -11.31348 0l-32 32a7.99915 7.99915 0 0 0 0 11.31348l18.34327 18.34326-50.34327 50.34326a7.99915 7.99915 0 0 0 0 11.31348l56 56a7.99945 7.99945 0 0 0 11.31348 0l88-88a7.99915 7.99915 0 0 0 0-11.31348zm-106.34326-42.34326 20.68652-20.68652 12.68653 12.68652-20.68653 20.68652zm12.68652 124.68652-44.68652-44.68652 50.34326-50.34326 26.34326-26.34326 44.68653 44.68652z"/><path d="m317.65686 18.34326a8 8 0 0 0 -11.31348 0l-80 80a7.99881 7.99881 0 0 0 -2.34326 5.65674v16h-16a7.99977 7.99977 0 0 0 -8 8v16h-16a7.99977 7.99977 0 0 0 -8 8v16h-16a7.99977 7.99977 0 0 0 -8 8v16h-16a7.99977 7.99977 0 0 0 -8 8v16h-16a7.99977 7.99977 0 0 0 -8 8v16h-16a7.99977 7.99977 0 0 0 -8 8v16h-16a7.99977 7.99977 0 0 0 -8 8v16h-16a7.99877 7.99877 0 0 0 -5.65674 2.34326l-16 16a7.99915 7.99915 0 0 0 0 11.31348l176 176a7.99945 7.99945 0 0 0 11.31348 0l288-288a7.99915 7.99915 0 0 0 0-11.31348zm141.02979 163.65674-14.68653 14.68652-8.68652-8.68652 14.68652-14.68652zm-40-40-14.68653 14.68652-8.68652-8.68652 14.68652-14.68652zm-40-40-14.68653 14.68652-8.68652-8.68652 14.68652-14.68652zm-40-40-14.68653 14.68652-8.68652-8.68652 14.68652-14.68652zm-138.68653 414.68652-8.68652-8.68652 30.34326-30.34326-11.31348-11.31348-30.34326 30.34326-112.68652-112.68652 26.34326-26.34326-11.31348-11.31348-26.34326 26.34326-20.68652-20.68652 8-8h20.68652a7.99977 7.99977 0 0 0 8-8v-16h16a7.99977 7.99977 0 0 0 8-8v-16h16a7.99977 7.99977 0 0 0 8-8v-16h16a7.99977 7.99977 0 0 0 8-8v-16h16a7.99977 7.99977 0 0 0 8-8v-16h16a7.99977 7.99977 0 0 0 8-8v-16h16a7.99977 7.99977 0 0 0 8-8v-16h16a7.99977 7.99977 0 0 0 8-8v-20.68652l72-72 6.68653 6.68652-20.34327 20.34326a7.99915 7.99915 0 0 0 0 11.31348l20 20a7.99945 7.99945 0 0 0 11.31348 0l20.34326-20.34326 8.68653 8.68652-20.34327 20.34326a7.99915 7.99915 0 0 0 0 11.31348l20 20a7.99945 7.99945 0 0 0 11.31348 0l20.34326-20.34326 8.68653 8.68652-20.34327 20.34326a7.99915 7.99915 0 0 0 0 11.31348l20 20a7.99945 7.99945 0 0 0 11.31348 0l20.34326-20.34326 8.68653 8.68652-20.34327 20.34326a7.99915 7.99915 0 0 0 0 11.31348l20 20a7.99945 7.99945 0 0 0 11.31348 0l20.34326-20.34326 6.68653 6.68652z"/><path d="m100.686 280h22.627v16h-22.627z" transform="matrix(0.707 -0.707 0.707 0.707 -170.843 163.549)"/><path d="m132.686 248h22.627v16h-22.627z" transform="matrix(0.707 -0.707 0.707 0.707 -138.843 176.804)"/><path d="m164.686 216h22.627v16h-22.627z" transform="matrix(0.707 -0.707 0.707 0.707 -106.843 190.059)"/><path d="m196.686 184h22.627v16h-22.627z" transform="matrix(0.707 -0.707 0.707 0.707 -74.843 203.314)"/><path d="m228.686 152h22.627v16h-22.627z" transform="matrix(0.707 -0.707 0.707 0.707 -42.843 216.569)"/><path d="m260.686 120h22.627v16h-22.627z" transform="matrix(0.707 -0.707 0.707 0.707 -10.843 229.823)"/><path d="m228.686 400h22.627v16h-22.627z" transform="matrix(0.707 -0.707 0.707 0.707 -218.205 289.206)"/><path d="m260.686 368h22.627v16h-22.627z" transform="matrix(0.707 -0.707 0.707 0.707 -186.205 302.461)"/><path d="m292.686 336h22.627v16h-22.627z" transform="matrix(0.707 -0.707 0.707 0.707 -154.205 315.716)"/><path d="m324.686 304h22.627v16h-22.627z" transform="matrix(0.707 -0.707 0.707 0.707 -122.205 328.971)"/><path d="m356.686 272h22.627v16h-22.627z" transform="matrix(0.707 -0.707 0.707 0.707 -90.205 342.225)"/><path d="m388.686 240h22.627v16h-22.627z" transform="matrix(0.707 -0.707 0.707 0.707 -58.205 355.48)"/><path d="m282.34338 157.65674 24 24a7.99945 7.99945 0 0 0 11.31348 0l24-24a7.99915 7.99915 0 0 0 0-11.31348l-24-24a8 8 0 0 0 -11.31348 0l-24 24a7.99915 7.99915 0 0 0 0 11.31348zm29.65674-18.34326 12.68653 12.68652-12.68653 12.68652-12.68652-12.68652z"/><path d="m352 172.686h16v22.627h-16z" transform="matrix(0.707 -0.707 0.707 0.707 -24.666 308.451)"/><path d="m328 196.686h16v22.627h-16z" transform="matrix(0.707 -0.707 0.707 0.707 -48.666 298.51)"/><path d="m153.373 264h45.255v16h-45.255z" transform="matrix(0.707 -0.707 0.707 0.707 -140.784 204.118)"/><path d="m149.65686 298.34326a8 8 0 0 0 -11.31348 0l-40 40a7.99915 7.99915 0 0 0 0 11.31348l72 72a7.99945 7.99945 0 0 0 11.31348 0l40-40a7.99915 7.99915 0 0 0 0-11.31348zm26.34326 106.34274-60.68603-60.686 28.686-28.686 60.68607 60.686z"/></g><g transform="matrix(0.078125 0 0 0.078125 155 330)" id="L1_18"><path d="m488.00012 160h-360v-136a8.00039 8.00039 0 0 0 -8-8h-96a8.00039 8.00039 0 0 0 -8 8v72a8.00039 8.00039 0 0 0 8 8h16a8.00039 8.00039 0 0 0 8-8 8 8 0 1 1 16 0 8.00039 8.00039 0 0 0 8 8h8v384a8.00039 8.00039 0 0 0 8 8h32a8.00039 8.00039 0 0 0 8-8v-32h24a8.00039 8.00039 0 0 0 8-8v-24h40v32a8.00039 8.00039 0 0 0 8 8h64a8.00039 8.00039 0 0 0 8-8 8 8 0 0 1 16 0 8.00039 8.00039 0 0 0 8 8h64a8.00039 8.00039 0 0 0 8-8v-32h112a8.00039 8.00039 0 0 0 8-8v-248a8.00039 8.00039 0 0 0 -8-8zm-360 144h32v24h-32zm32-16h-32v-24h32zm-32 56h32v24h-32zm32-96h-32v-24h32zm-81.37112-160a24.0021 24.0021 0 0 0 -45.25781 0h-1.3711v-24h48v24zm33.37109 392h-16v-424a8.00039 8.00039 0 0 0 -8-8h-56v-16h80zm32-40h-16v-16h16zm8-32h-24v-24h32v24zm64 16h16v24h-16zm72 8a24.04163 24.04163 0 0 0 -22.6289 16h-17.3711v-24h80v24h-17.37109a24.04166 24.04166 0 0 0 -22.62888-16zm72 16h-16v-24h16zm120-40h-304v-192a8.00039 8.00039 0 0 0 -8-8h-40v-32h352z"/><path d="m240.00012 272h40a8.00039 8.00039 0 0 0 8-8v-64a8.00039 8.00039 0 0 0 -8-8h-40a8.00039 8.00039 0 0 0 -8 8v64a8.00039 8.00039 0 0 0 8 8zm32-16h-24v-16h24zm-24-48h24v16h-24z"/><path d="m384.00012 240a24 24 0 1 0 -24-24 24.0275 24.0275 0 0 0 24 24zm0-32a8 8 0 1 1 -8 8 8.00917 8.00917 0 0 1 8-8z"/><path d="m328.00012 240a24 24 0 1 0 -24-24 24.0275 24.0275 0 0 0 24 24zm0-32a8 8 0 1 1 -8 8 8.00917 8.00917 0 0 1 8-8z"/><path d="m208.00012 368a8.00039 8.00039 0 0 0 8 8h8v16h16v-16h8v16h16v-16h8a8.00039 8.00039 0 0 0 8-8v-8h16v-16h-16v-8h16v-16h-16v-8a8.00039 8.00039 0 0 0 -8-8h-8v-16h-16v16h-8v-16h-16v16h-8a8.00039 8.00039 0 0 0 -8 8v8h-16v16h16v8h-16v16h16zm16-48h40v40h-40z"/><path d="m192 200h24v16h-24z"/><path d="m192 232h24v16h-24z"/><path d="m192 264h24v16h-24z"/><path d="m395.94153 273.03809a8.00609 8.00609 0 0 0 -8.05762.10156l-40 24a8.00153 8.00153 0 0 0 -3.88379 6.86035h-24a8.00039 8.00039 0 0 0 -8 8v32a8.00039 8.00039 0 0 0 8 8h24a8.00153 8.00153 0 0 0 3.88379 6.86035l40 24a8.00029 8.00029 0 0 0 12.11621-6.86035v-96a8.00145 8.00145 0 0 0 -4.05859-6.96191zm-67.94141 62.96191v-16h16v16zm56 25.87012-24-14.39942v-38.9414l24-14.39942z"/><path d="m422.62805 351.0293a32.03851 32.03851 0 0 0 0-45.25489l-11.31445 11.31446a16.019 16.019 0 0 1 0 22.62793z"/><path d="m433.94153 362.34277 11.3125 11.31446a64.00025 64.00025 0 0 0 .001-90.51075l-11.31445 11.31446a47.999 47.999 0 0 1 .001 67.88183z"/></g></defs><g fi:class="KUsePattern"><pattern id="pattern_L1_1" width="350" height="350" patternUnits="userSpaceOnUse"><use xlink:href="#L1_1" x="-350" y="-350"/><use xlink:href="#L1_1" x="0" y="-350"/><use xlink:href="#L1_1" x="350" y="-350"/><use xlink:href="#L1_1" x="-350" y="0"/><use xlink:href="#L1_1" x="0" y="0"/><use xlink:href="#L1_1" x="350" y="0"/><use xlink:href="#L1_1" x="-350" y="350"/><use xlink:href="#L1_1" x="0" y="350"/><use xlink:href="#L1_1" x="350" y="350"/></pattern><rect x="0" y="0" width="100%" height="100%" fill="url(#pattern_L1_1)"/></g><g fi:class="KUsePattern"><pattern id="pattern_L1_3" width="350" height="350" patternUnits="userSpaceOnUse"><use xlink:href="#L1_3" x="-350" y="-350"/><use xlink:href="#L1_3" x="0" y="-350"/><use xlink:href="#L1_3" x="350" y="-350"/><use xlink:href="#L1_3" x="-350" y="0"/><use xlink:href="#L1_3" x="0" y="0"/><use xlink:href="#L1_3" x="350" y="0"/><use xlink:href="#L1_3" x="-350" y="350"/><use xlink:href="#L1_3" x="0" y="350"/><use xlink:href="#L1_3" x="350" y="350"/></pattern><rect x="0" y="0" width="100%" height="100%" fill="url(#pattern_L1_3)"/></g><g fi:class="KUsePattern"><pattern id="pattern_L1_5" width="350" height="350" patternUnits="userSpaceOnUse"><use xlink:href="#L1_5" x="-350" y="-350"/><use xlink:href="#L1_5" x="0" y="-350"/><use xlink:href="#L1_5" x="350" y="-350"/><use xlink:href="#L1_5" x="-350" y="0"/><use xlink:href="#L1_5" x="0" y="0"/><use xlink:href="#L1_5" x="350" y="0"/><use xlink:href="#L1_5" x="-350" y="350"/><use xlink:href="#L1_5" x="0" y="350"/><use xlink:href="#L1_5" x="350" y="350"/></pattern><rect x="0" y="0" width="100%" height="100%" fill="url(#pattern_L1_5)"/></g><g fi:class="KUsePattern"><pattern id="pattern_L1_7" width="350" height="350" patternUnits="userSpaceOnUse"><use xlink:href="#L1_7" x="-350" y="-350"/><use xlink:href="#L1_7" x="0" y="-350"/><use xlink:href="#L1_7" x="350" y="-350"/><use xlink:href="#L1_7" x="-350" y="0"/><use xlink:href="#L1_7" x="0" y="0"/><use xlink:href="#L1_7" x="350" y="0"/><use xlink:href="#L1_7" x="-350" y="350"/><use xlink:href="#L1_7" x="0" y="350"/><use xlink:href="#L1_7" x="350" y="350"/></pattern><rect x="0" y="0" width="100%" height="100%" fill="url(#pattern_L1_7)"/></g><g fi:class="KUsePattern"><pattern id="pattern_L1_9" width="350" height="350" patternUnits="userSpaceOnUse"><use xlink:href="#L1_9" x="-350" y="-350"/><use xlink:href="#L1_9" x="0" y="-350"/><use xlink:href="#L1_9" x="350" y="-350"/><use xlink:href="#L1_9" x="-350" y="0"/><use xlink:href="#L1_9" x="0" y="0"/><use xlink:href="#L1_9" x="350" y="0"/><use xlink:href="#L1_9" x="-350" y="350"/><use xlink:href="#L1_9" x="0" y="350"/><use xlink:href="#L1_9" x="350" y="350"/></pattern><rect x="0" y="0" width="100%" height="100%" fill="url(#pattern_L1_9)"/></g><g fi:class="KUsePattern"><pattern id="pattern_L1_11" width="350" height="350" patternUnits="userSpaceOnUse"><use xlink:href="#L1_11" x="-350" y="-350"/><use xlink:href="#L1_11" x="0" y="-350"/><use xlink:href="#L1_11" x="350" y="-350"/><use xlink:href="#L1_11" x="-350" y="0"/><use xlink:href="#L1_11" x="0" y="0"/><use xlink:href="#L1_11" x="350" y="0"/><use xlink:href="#L1_11" x="-350" y="350"/><use xlink:href="#L1_11" x="0" y="350"/><use xlink:href="#L1_11" x="350" y="350"/></pattern><rect x="0" y="0" width="100%" height="100%" fill="url(#pattern_L1_11)"/></g><g fi:class="KUsePattern"><pattern id="pattern_L1_13" width="350" height="350" patternUnits="userSpaceOnUse"><use xlink:href="#L1_13" x="-350" y="-350"/><use xlink:href="#L1_13" x="0" y="-350"/><use xlink:href="#L1_13" x="350" y="-350"/><use xlink:href="#L1_13" x="-350" y="0"/><use xlink:href="#L1_13" x="0" y="0"/><use xlink:href="#L1_13" x="350" y="0"/><use xlink:href="#L1_13" x="-350" y="350"/><use xlink:href="#L1_13" x="0" y="350"/><use xlink:href="#L1_13" x="350" y="350"/></pattern><rect x="0" y="0" width="100%" height="100%" fill="url(#pattern_L1_13)"/></g><g fi:class="KUsePattern"><pattern id="pattern_L1_15" width="350" height="350" patternUnits="userSpaceOnUse"><use xlink:href="#L1_15" x="-350" y="-350"/><use xlink:href="#L1_15" x="0" y="-350"/><use xlink:href="#L1_15" x="350" y="-350"/><use xlink:href="#L1_15" x="-350" y="0"/><use xlink:href="#L1_15" x="0" y="0"/><use xlink:href="#L1_15" x="350" y="0"/><use xlink:href="#L1_15" x="-350" y="350"/><use xlink:href="#L1_15" x="0" y="350"/><use xlink:href="#L1_15" x="350" y="350"/></pattern><rect x="0" y="0" width="100%" height="100%" fill="url(#pattern_L1_15)"/></g><g fi:class="KUsePattern"><pattern id="pattern_L1_17" width="350" height="350" patternUnits="userSpaceOnUse"><use xlink:href="#L1_17" x="-350" y="-350"/><use xlink:href="#L1_17" x="0" y="-350"/><use xlink:href="#L1_17" x="350" y="-350"/><use xlink:href="#L1_17" x="-350" y="0"/><use xlink:href="#L1_17" x="0" y="0"/><use xlink:href="#L1_17" x="350" y="0"/><use xlink:href="#L1_17" x="-350" y="350"/><use xlink:href="#L1_17" x="0" y="350"/><use xlink:href="#L1_17" x="350" y="350"/></pattern><rect x="0" y="0" width="100%" height="100%" fill="url(#pattern_L1_17)"/></g><g fi:class="KUsePattern"><pattern id="pattern_L1_18" width="350" height="350" patternUnits="userSpaceOnUse"><use xlink:href="#L1_18" x="-350" y="-350"/><use xlink:href="#L1_18" x="0" y="-350"/><use xlink:href="#L1_18" x="350" y="-350"/><use xlink:href="#L1_18" x="-350" y="0"/><use xlink:href="#L1_18" x="0" y="0"/><use xlink:href="#L1_18" x="350" y="0"/><use xlink:href="#L1_18" x="-350" y="350"/><use xlink:href="#L1_18" x="0" y="350"/><use xlink:href="#L1_18" x="350" y="350"/></pattern><rect x="0" y="0" width="100%" height="100%" fill="url(#pattern_L1_18)"/></g></svg>